name rise45.9887peak57.8056fall74.9286.mot
datacolumns 19
datarows 26
range 22.27658300000000 22.31824800000000
endheader
time	ground_force1_vx	ground_force1_vy	ground_force1_vz	ground_force1_px	ground_force1_py	ground_force1_pz	ground_force2_vx	ground_force2_vy	ground_force2_vz	ground_force2_px	ground_force2_py	ground_force2_pz	ground_torque1_x	ground_torque1_y	ground_torque1_z	ground_torque2_x	ground_torque2_y	ground_torque2_z	
22.27658300000000	-45.31082100000000	795.35383400000001	56.23494600000000	0.08511300000000	0.00000000000000	0.11360200000000	-2.87975600000000	62.19673700000000	5.78413100000000	0.31940500000000	0.00000000000000	-0.09612600000000	0.00000000000000	21.21478400000000	0.00000000000000	0.00000000000000	3.41380300000000	0.00000000000000	
22.27824900000000	-45.50841300000000	793.09874000000002	56.08347600000000	0.08451800000000	0.00000000000000	0.11351400000000	-3.00581400000000	67.90187500000000	6.06885200000000	0.32245700000000	0.00000000000000	-0.09643300000000	0.00000000000000	21.10261300000000	0.00000000000000	0.00000000000000	3.61046700000000	0.00000000000000	
22.27991500000000	-45.70738200000000	790.70824200000004	55.91088900000000	0.08393300000000	0.00000000000000	0.11342300000000	-3.08615100000000	73.39814500000000	6.28609700000000	0.32527200000000	0.00000000000000	-0.09672500000000	0.00000000000000	20.98800300000000	0.00000000000000	0.00000000000000	3.77108700000000	0.00000000000000	
22.28158400000000	-45.90824700000000	788.18130199999996	55.71673800000000	0.08335600000000	0.00000000000000	0.11332900000000	-3.11922100000000	78.69494299999999	6.43792600000000	0.32787200000000	0.00000000000000	-0.09700300000000	0.00000000000000	20.87112900000000	0.00000000000000	0.00000000000000	3.89682100000000	0.00000000000000	
22.28325000000000	-46.11150600000000	785.51696900000002	55.50061000000000	0.08278700000000	0.00000000000000	0.11323300000000	-3.10468700000000	83.81951300000000	6.52861500000000	0.33027600000000	0.00000000000000	-0.09726900000000	0.00000000000000	20.75216500000000	0.00000000000000	0.00000000000000	3.99022500000000	0.00000000000000	
22.28491700000000	-46.31763400000000	782.71437600000002	55.26212100000000	0.08222500000000	0.00000000000000	0.11313300000000	-3.04314700000000	88.81220700000000	6.56396600000000	0.33249900000000	0.00000000000000	-0.09752400000000	0.00000000000000	20.63128200000000	0.00000000000000	0.00000000000000	4.05483200000000	0.00000000000000	
22.28658600000000	-46.52707600000000	779.77273600000001	55.00092400000000	0.08167100000000	0.00000000000000	0.11302900000000	-2.93583900000000	93.72148600000000	6.55061300000000	0.33455600000000	0.00000000000000	-0.09777200000000	0.00000000000000	20.50864900000000	0.00000000000000	0.00000000000000	4.09473700000000	0.00000000000000	
22.28825000000000	-46.74024700000000	776.69134499999996	54.71670500000000	0.08112300000000	0.00000000000000	0.11292300000000	-2.78435500000000	98.59912500000000	6.49537200000000	0.33645900000000	0.00000000000000	-0.09801100000000	0.00000000000000	20.38443000000000	0.00000000000000	0.00000000000000	4.11419200000000	0.00000000000000	
22.28991800000000	-46.95752600000000	773.46957899999995	54.40919100000000	0.08058000000000	0.00000000000000	0.11281400000000	-2.59038300000000	103.49595400000000	6.40469900000000	0.33821800000000	0.00000000000000	-0.09824500000000	0.00000000000000	20.25878300000000	0.00000000000000	0.00000000000000	4.11726200000000	0.00000000000000	
22.29158900000000	-47.17925700000000	770.10689400000001	54.07814600000000	0.08004200000000	0.00000000000000	0.11270100000000	-2.35550100000000	108.45839200000000	6.28426200000000	0.33984400000000	0.00000000000000	-0.09847200000000	0.00000000000000	20.13186400000000	0.00000000000000	0.00000000000000	4.10755700000000	0.00000000000000	
22.29325200000000	-47.40574200000000	766.60282299999994	53.72337500000000	0.07950900000000	0.00000000000000	0.11258500000000	-2.08101300000000	113.52589399999999	6.13864800000000	0.34134300000000	0.00000000000000	-0.09869600000000	0.00000000000000	20.00382100000000	0.00000000000000	0.00000000000000	4.08803700000000	0.00000000000000	
22.29491800000000	-47.63723900000000	762.95697500000006	53.34472800000000	0.07897900000000	0.00000000000000	0.11246700000000	-1.76785400000000	118.72934700000000	5.97120900000000	0.34272500000000	0.00000000000000	-0.09891400000000	0.00000000000000	19.87479700000000	0.00000000000000	0.00000000000000	4.06090900000000	0.00000000000000	
22.29657900000000	-47.87396100000000	759.16903900000000	52.94209600000000	0.07845100000000	0.00000000000000	0.11234500000000	-1.41653800000000	124.09036900000000	5.78401600000000	0.34399600000000	0.00000000000000	-0.09913000000000	0.00000000000000	19.74492700000000	0.00000000000000	0.00000000000000	4.02758900000000	0.00000000000000	
22.29825000000000	-48.11607000000000	755.23877500000003	52.51541700000000	0.07792600000000	0.00000000000000	0.11221900000000	-1.02716700000000	129.62138999999999	5.57793600000000	0.34516100000000	0.00000000000000	-0.09934200000000	0.00000000000000	19.61434100000000	0.00000000000000	0.00000000000000	3.98874400000000	0.00000000000000	
22.29991400000000	-48.36367600000000	751.16601900000001	52.06467600000000	0.07740100000000	0.00000000000000	0.11209100000000	-0.59946600000000	135.32638499999999	5.35276600000000	0.34622800000000	0.00000000000000	-0.09955100000000	0.00000000000000	19.48315800000000	0.00000000000000	0.00000000000000	3.94436800000000	0.00000000000000	
22.30158300000000	-48.61683300000000	746.95068000000003	51.58990400000000	0.07687700000000	0.00000000000000	0.11196000000000	-0.13285500000000	141.20205999999999	5.10743800000000	0.34720000000000	0.00000000000000	-0.09975900000000	0.00000000000000	19.35149300000000	0.00000000000000	0.00000000000000	3.89390500000000	0.00000000000000	
22.30324600000000	-48.87553800000000	742.59273800000005	51.09118400000000	0.07635200000000	0.00000000000000	0.11182500000000	0.37345800000000	147.23934100000000	4.84024400000000	0.34808200000000	0.00000000000000	-0.09996400000000	0.00000000000000	19.21945000000000	0.00000000000000	0.00000000000000	3.83639100000000	0.00000000000000	
22.30491700000000	-49.13972700000000	738.09224600000005	50.56864400000000	0.07582500000000	0.00000000000000	0.11168800000000	0.92038400000000	153.42498000000001	4.54907500000000	0.34887900000000	0.00000000000000	-0.10016700000000	0.00000000000000	19.08712400000000	0.00000000000000	0.00000000000000	3.77059200000000	0.00000000000000	
22.30658100000000	-49.40927600000000	733.44932500000004	50.02246700000000	0.07529600000000	0.00000000000000	0.11154700000000	1.50885500000000	159.74315300000001	4.23164000000000	0.34959500000000	0.00000000000000	-0.10036800000000	0.00000000000000	18.95460200000000	0.00000000000000	0.00000000000000	3.69515100000000	0.00000000000000	
22.30825300000000	-49.68399300000000	728.66416700000002	49.45288500000000	0.07476400000000	0.00000000000000	0.11140400000000	2.13973100000000	166.17692400000001	3.88567100000000	0.35023300000000	0.00000000000000	-0.10056800000000	0.00000000000000	18.82196000000000	0.00000000000000	0.00000000000000	3.60870600000000	0.00000000000000	
22.30991800000000	-49.96362200000000	723.73703200000000	48.86018000000000	0.07422800000000	0.00000000000000	0.11125800000000	2.81372400000000	172.70949200000001	3.50908200000000	0.35079700000000	0.00000000000000	-0.10076700000000	0.00000000000000	18.68926700000000	0.00000000000000	0.00000000000000	3.50999400000000	0.00000000000000	
22.31158700000000	-50.24783900000000	718.66824999999994	48.24468800000000	0.07368600000000	0.00000000000000	0.11110800000000	3.53133600000000	179.32518500000000	3.10009200000000	0.35129100000000	0.00000000000000	-0.10096400000000	0.00000000000000	18.55657900000000	0.00000000000000	0.00000000000000	3.39792800000000	0.00000000000000	
22.31324800000000	-50.53625000000000	713.45821699999999	47.60679700000000	0.07313900000000	0.00000000000000	0.11095600000000	4.29281700000000	186.01015799999999	2.65731300000000	0.35171600000000	0.00000000000000	-0.10116000000000	0.00000000000000	18.42394400000000	0.00000000000000	0.00000000000000	3.27164800000000	0.00000000000000	
22.31491900000000	-50.82839100000000	708.10739999999998	46.94694400000000	0.07258600000000	0.00000000000000	0.11080200000000	5.09813500000000	192.75281699999999	2.17978400000000	0.35207600000000	0.00000000000000	-0.10135500000000	0.00000000000000	18.29139800000000	0.00000000000000	0.00000000000000	3.13054700000000	0.00000000000000	
22.31658600000000	-51.12373000000000	702.61633600000005	46.26562000000000	0.07202500000000	0.00000000000000	0.11064400000000	5.94696700000000	199.54398699999999	1.66698700000000	0.35237400000000	0.00000000000000	-0.10154800000000	0.00000000000000	18.15896900000000	0.00000000000000	0.00000000000000	2.97427700000000	0.00000000000000	
22.31824800000000	-51.42166100000000	696.98563100000001	45.56336600000000	0.07145600000000	0.00000000000000	0.11048400000000	6.83870600000000	206.37686199999999	1.11882200000000	0.35261300000000	0.00000000000000	-0.10174000000000	0.00000000000000	18.02667200000000	0.00000000000000	0.00000000000000	2.80273400000000	0.00000000000000	
